<svg width="20" height="20" viewBox="0 0 20 20" fill="none" xmlns="http://www.w3.org/2000/svg">
<path d="M10.0004 0.400391C4.69879 0.400391 0.400391 4.69879 0.400391 10.0004C0.400391 15.302 4.69879 19.6004 10.0004 19.6004C15.302 19.6004 19.6004 15.302 19.6004 10.0004C19.6004 4.69879 15.302 0.400391 10.0004 0.400391ZM10.0004 2.00039C14.4188 2.00039 18.0004 5.58199 18.0004 10.0004C18.0004 14.4188 14.4188 18.0004 10.0004 18.0004C5.58199 18.0004 2.00039 14.4188 2.00039 10.0004C2.00039 5.58199 5.58199 2.00039 10.0004 2.00039ZM9.20039 6.00039C8.99559 6.00039 8.79077 6.07877 8.63477 6.23477L5.43477 9.43477C5.12197 9.74757 5.12197 10.2532 5.43477 10.566L8.63477 13.766C8.94757 14.0788 9.45322 14.0788 9.76602 13.766C10.0788 13.4532 10.0788 12.9476 9.76602 12.6348L7.93164 10.8004H14.0004C14.442 10.8004 14.8004 10.4428 14.8004 10.0004C14.8004 9.55799 14.442 9.20039 14.0004 9.20039H7.93164L9.76602 7.36602C10.0788 7.05322 10.0788 6.54757 9.76602 6.23477C9.61002 6.07877 9.40519 6.00039 9.20039 6.00039Z" fill="#323C45"/>
</svg>
