<svg width="46" height="31" viewBox="0 0 46 31" fill="none" xmlns="http://www.w3.org/2000/svg">
<g opacity="0.3">
<path d="M36.9143 15.8419C41.8944 15.8419 45.256 18.9191 45.256 23.4779C45.256 27.5809 41.3964 31 36.1673 31C30.4402 31 26.2071 26.8971 26.2071 20.6287C26.2071 6.38235 37.9104 0.68383 45.256 1.97099e-06L45.256 6.26838C40.2759 7.06618 34.6733 11.511 34.4243 16.4118C34.6733 16.2978 35.6693 15.8419 36.9143 15.8419Z" fill="white"/>
<path d="M11.5158 15.8419C16.4959 15.8419 19.8575 18.9191 19.8575 23.4779C19.8575 27.5809 15.9979 31 10.7688 31C5.04168 31 0.808593 26.8971 0.808594 20.6287C0.808592 6.38235 12.5118 0.683828 19.8575 0V6.26838C14.8774 7.06618 9.27477 11.511 9.02576 16.4118C9.27477 16.2978 10.2708 15.8419 11.5158 15.8419Z" fill="white"/>
</g>
</svg>
