<svg width="21" height="21" viewBox="0 0 21 21" fill="none" xmlns="http://www.w3.org/2000/svg">
<path fill-rule="evenodd" clip-rule="evenodd" d="M10.5 18.8333C15.1023 18.8333 18.8333 15.1024 18.8333 10.5C18.8333 5.89762 15.1023 2.16666 10.5 2.16666C5.89759 2.16666 2.16663 5.89762 2.16663 10.5C2.16663 15.1024 5.89759 18.8333 10.5 18.8333ZM14.3266 8.38373C14.5386 8.11126 14.4895 7.71859 14.217 7.50667C13.9445 7.29475 13.5519 7.34384 13.34 7.61631L10.0008 11.9095C9.92653 12.005 9.78687 12.0174 9.69697 11.9365L7.58473 10.0355C7.32817 9.80455 6.93298 9.82535 6.70207 10.0819C6.47116 10.3385 6.49196 10.7337 6.74853 10.9646L8.86076 12.8656C9.49004 13.4319 10.4677 13.3452 10.9875 12.6769L14.3266 8.38373Z" fill="#10B981"/>
</svg>
