<svg width="20" height="20" viewBox="0 0 20 20" fill="none" xmlns="http://www.w3.org/2000/svg">
<g clip-path="url(#clip0_204_7473)">
<path d="M18.3334 15V5.80104C18.3334 5.29474 18.1033 4.81588 17.7079 4.49959L15.0798 2.3971C14.4888 1.92427 13.7544 1.66667 12.9975 1.66667L7.00269 1.66666C6.24578 1.66666 5.51141 1.92426 4.92037 2.3971L2.29225 4.49959C1.8969 4.81588 1.66675 5.29473 1.66675 5.80104V15C1.66675 16.841 3.15913 18.3333 5.00008 18.3333H15.0001C16.841 18.3333 18.3334 16.841 18.3334 15Z" stroke="#A43772" stroke-width="1.5" stroke-linejoin="round"/>
<path d="M7.5 5H12.5V7.5C12.5 8.88071 11.3807 10 10 10C8.61929 10 7.5 8.88071 7.5 7.5V5Z" stroke="#A43772" stroke-width="1.5" stroke-linejoin="round"/>
<path d="M2.08325 5H17.9166" stroke="#A43772" stroke-width="1.5" stroke-linecap="round" stroke-linejoin="round"/>
</g>
<defs>
<clipPath id="clip0_204_7473">
<rect width="20" height="20" fill="white"/>
</clipPath>
</defs>
</svg>
